<?xml version="1.0" encoding="utf-8"?>
<!-- Generator: Adobe Illustrator 23.0.0, SVG Export Plug-In . SVG Version: 6.00 Build 0)  -->
<svg version="1.1" id="Layer_1" xmlns="http://www.w3.org/2000/svg" xmlns:xlink="http://www.w3.org/1999/xlink" x="0px" y="0px"
	 viewBox="0 0 872.21 152.77" style="enable-background:new 0 0 872.21 152.77;" xml:space="preserve">
<style type="text/css">
	.st0{fill:#19AAF8;}
	.st1{fill:#1D1D1B;}
</style>
<g>
	<path class="st0" d="M68.41,52.86c1.9,0.29,2.29-0.09,2.54-1.9c0.41-2.75,1.4-7.39,3.7-12.15c2.49-5.13,6.46-10.76,12.01-14.54
		c4.67-3.14,12.33-6.61,18.27-7.87c4.85-1.04,9.4-1.24,13.3-0.88c8.01,0.72,12.45,3.01,14.67,5.97c0.82,1.11,1.28,2.47,1.29,3.35
		c0.06,1.47-0.58,3.39-2.69,5.28c-2.06,1.82-6.44,4.12-12.42,6.13c-6.21,2.07-14.69,4.25-23.15,6.2
		c-7.08,1.63-11.11,3.02-14.48,4.16c-5.6,1.9-7.28,7.48-3.79,9.18c5.04,2.46,8.19,5.03,10.88,7.22c4.03,3.31,8.71,7.2,14.52,14.22
		c5.26,6.44,13.88,18.73,16.97,30.66c3.43,13.1,1.29,25.52-6.11,28.98c-7.26,3.41-16.92-1.51-23.71-8.56
		c-6.46-6.69-10.96-14.57-15.2-26.72c-3.68-10.45-5.17-25.59-5.16-33.52c0-2.64-0.04-3.2,0.06-5.59c0.25-2.08-5.35-3.8-11.36,0.08
		C51.71,67,45,74.99,41.05,79.62c-1.72,2.03-4.05,5-6.53,8.12c-3.26,4.09-6.86,8.36-10.14,10.74c-4.94,3.6-12.87,5.09-18.42,1.12
		c-3.09-2.21-4.73-6.38-4.78-10.62C1.14,86,1.88,83.29,3.37,80.63c1.86-3.27,4.92-6.78,9.78-10.81c5.02-4.13,13.04-8.81,21.07-12.04
		C46.47,52.85,59.66,51.29,68.41,52.86"/>
</g>
<g>
	<g>
		<path class="st1" d="M174.93,107.67c-7.5,0-10.3-4.4-10.3-10.3v-37.9h-7.6c-0.7,0-0.7-1.2-0.7-2.2c0-1,0-2.3,0.7-2.3h7.6v-13.1
			c0-0.6,1.7-0.6,2.7-0.6s2.7,0,2.7,0.6v13.1h11.8c0.6,0,0.6,1.1,0.6,2.3c0,1.2,0,2.2-0.6,2.2h-11.8v37.7c0,4.2,1.8,5.8,6.2,5.8h5.5
			c0.7,0,0.9,0.2,0.9,2.2c0,2.2-0.2,2.5-0.9,2.5H174.93z"/>
		<path class="st1" d="M195.43,83.27v5.2c0,9.6,5.1,15.5,15.4,15.5c7.8,0,12.5-2.1,16.4-4.2c0.8-0.4,3.3,3.9,2.3,4.5
			c-5.1,2.9-11.4,4.6-18.5,4.6c-13.2,0-21-7.4-21-20v-16.5c0-12.2,8.6-20,19.9-20c12.2,0,20.5,7.8,20.5,21.1v9.8H195.43z
			 M225.04,72.97c0-10.7-6.9-15.9-15.1-15.9c-7.9,0-14.5,5.2-14.5,15.6v6.2h29.6V72.97z"/>
		<path class="st1" d="M252.83,107.67c-7.4,0-10.3-4.4-10.3-10.3v-64c0-0.6,1.7-0.6,2.7-0.6s2.7,0,2.7,0.6v63.8
			c0,4.2,1.9,5.9,6.3,5.9h2.7c0.7,0,0.9,0.2,0.9,2.2c0,2.2-0.2,2.4-0.9,2.4H252.83z"/>
		<path class="st1" d="M269.63,83.27v5.2c0,9.6,5.1,15.5,15.4,15.5c7.8,0,12.5-2.1,16.4-4.2c0.8-0.4,3.3,3.9,2.3,4.5
			c-5.1,2.9-11.4,4.6-18.5,4.6c-13.2,0-21-7.4-21-20v-16.5c0-12.2,8.6-20,19.9-20c12.2,0,20.5,7.8,20.5,21.1v9.8H269.63z
			 M299.23,72.97c0-10.7-6.9-15.9-15.1-15.9c-7.9,0-14.5,5.2-14.5,15.6v6.2h29.6V72.97z"/>
		<path class="st1" d="M352.63,108.07c-1,0-2.7,0-2.7-0.6v-36.7c0-8.9-3.9-13-10.4-13c-6.9,0-13.3,5.9-17.2,11.6v38.1
			c0,0.6-1.7,0.6-2.7,0.6s-2.7,0-2.7-0.6v-53.8c0-0.6,1.7-0.6,2.7-0.6s2.6,0,2.6,0.6v9.7c4.3-6.1,10.9-11,18.9-11
			c8.7,0,14.2,6.5,14.2,16v39.1C355.33,108.07,353.63,108.07,352.63,108.07z"/>
		<path class="st1" d="M366.83,89.37v-17.5c0-12.6,7.6-19.5,20.8-19.5c13.3,0,21,6.9,21,19.5v17.5c0,12.5-7.7,19.5-21,19.5
			C374.43,108.87,366.83,101.87,366.83,89.37z M387.63,57.27c-9.6,0-15.4,4.1-15.4,15.5v15.7c0,11.3,5.8,15.6,15.4,15.6
			c9.7,0,15.6-4.1,15.6-15.6v-15.7C403.23,61.47,397.33,57.27,387.63,57.27z"/>
		<path class="st1" d="M439.83,58.87c-4.4,0-8.1,4-13.6,12.4v36.2c0,0.6-1.7,0.6-2.7,0.6s-2.6,0-2.6-0.6v-53.8
			c0-0.6,1.6-0.6,2.6-0.6s2.5,0,2.5,0.6v12.1c6-9.1,9.2-12.5,15.2-12.5h2c0.6,0,0.6,1.9,0.6,2.9s-0.2,2.7-0.8,2.7H439.83z"/>
	</g>
	<g>
		<path class="st1" d="M563.62,107.47c0,0.6-1.7,0.6-2.7,0.6s-2.7,0-2.7-0.6v-37.7c0-7.7-4-11.9-9.2-11.9c-5.8,0-11.7,7.1-14.8,12.5
			v37.1c0,0.6-1.7,0.6-2.7,0.6s-2.7,0-2.7-0.6v-53.8c0-0.6,1.6-0.6,2.6-0.6s2.7,0,2.7,0.6v10.4c3.5-5.7,9.2-11.7,16.2-11.7
			c7.7,0,11.7,6.4,12.6,11.7c4.1-6.3,9.9-11.7,16.4-11.7c8.2,0,13.7,5.8,13.7,15.3v39.8c0,0.6-1.7,0.6-2.7,0.6s-2.7,0-2.7-0.6v-37.7
			c0-8-3.4-11.9-9-11.9c-5.8,0-11.4,5.8-15,12.2V107.47z"/>
		<path class="st1" d="M640.22,108.07c-1,0-2.6,0-2.6-0.6v-5.9c-3.4,3.1-9.6,7.3-17.3,7.3c-10.6,0-17.1-6.1-17.1-16.1v-2.6
			c0-12.4,10.8-17.7,34.3-14.5v-4.4c0-9.9-3.8-13.9-13.1-13.9c-4.9,0-10.6,1.1-14.7,3.3c-1.2,0.7-3.1-4.3-1.8-4.9
			c3.8-1.8,10.4-3.4,16.7-3.4c12.7,0,18.3,6.7,18.3,18.5v36.6C642.92,108.07,641.22,108.07,640.22,108.07z M637.51,79.97
			c-20.4-2.9-28.9,0.9-28.9,10.3v2.5c0,7.6,5.7,11.2,12.5,11.2c6.7,0,12.5-3.4,16.4-7.4V79.97z"/>
		<path class="st1" d="M675.61,58.87c-4.4,0-8.1,4-13.6,12.4v36.2c0,0.6-1.7,0.6-2.7,0.6s-2.6,0-2.6-0.6v-53.8
			c0-0.6,1.6-0.6,2.6-0.6s2.5,0,2.5,0.6v12.1c6-9.1,9.2-12.5,15.2-12.5h2c0.6,0,0.6,1.9,0.6,2.9s-0.2,2.7-0.8,2.7H675.61z"/>
		<path class="st1" d="M686.41,43.97v-10.6c0-0.6,1.7-0.6,2.7-0.6s2.7,0,2.7,0.6v10.6c0,0.6-1.7,0.6-2.7,0.6
			S686.41,44.57,686.41,43.97z M686.41,107.47v-53.8c0-0.6,1.7-0.6,2.7-0.6s2.7,0,2.7,0.6v53.8c0,0.6-1.7,0.6-2.7,0.6
			S686.41,108.07,686.41,107.47z"/>
		<path class="st1" d="M718.71,107.67c-7.5,0-10.3-4.4-10.3-10.3v-37.9h-7.6c-0.7,0-0.7-1.2-0.7-2.2c0-1,0-2.3,0.7-2.3h7.6v-13.1
			c0-0.6,1.7-0.6,2.7-0.6s2.7,0,2.7,0.6v13.1h11.8c0.6,0,0.6,1.1,0.6,2.3c0,1.2,0,2.2-0.6,2.2h-11.8v37.7c0,4.2,1.8,5.8,6.2,5.8h5.5
			c0.7,0,0.9,0.2,0.9,2.2c0,2.2-0.2,2.5-0.9,2.5H718.71z"/>
		<path class="st1" d="M736.11,43.97v-10.6c0-0.6,1.7-0.6,2.7-0.6s2.7,0,2.7,0.6v10.6c0,0.6-1.7,0.6-2.7,0.6
			S736.11,44.57,736.11,43.97z M736.11,107.47v-53.8c0-0.6,1.7-0.6,2.7-0.6s2.7,0,2.7,0.6v53.8c0,0.6-1.7,0.6-2.7,0.6
			S736.11,108.07,736.11,107.47z"/>
		<path class="st1" d="M790.91,107.47c0,0.6-1.7,0.6-2.7,0.6s-2.7,0-2.7-0.6v-37.7c0-7.7-4-11.9-9.2-11.9c-5.8,0-11.7,7.1-14.8,12.5
			v37.1c0,0.6-1.7,0.6-2.7,0.6s-2.7,0-2.7-0.6v-53.8c0-0.6,1.6-0.6,2.6-0.6s2.7,0,2.7,0.6v10.4c3.5-5.7,9.2-11.7,16.2-11.7
			c7.7,0,11.7,6.4,12.6,11.7c4.1-6.3,9.9-11.7,16.4-11.7c8.2,0,13.7,5.8,13.7,15.3v39.8c0,0.6-1.7,0.6-2.7,0.6s-2.7,0-2.7-0.6v-37.7
			c0-8-3.4-11.9-9-11.9c-5.8,0-11.4,5.8-15,12.2V107.47z"/>
		<path class="st1" d="M837.21,83.27v5.2c0,9.6,5.1,15.5,15.4,15.5c7.8,0,12.5-2.1,16.4-4.2c0.8-0.4,3.3,3.9,2.3,4.5
			c-5.1,2.9-11.4,4.6-18.5,4.6c-13.2,0-21-7.4-21-20v-16.5c0-12.2,8.6-20,19.9-20c12.2,0,20.5,7.8,20.5,21.1v9.8H837.21z
			 M866.81,72.97c0-10.7-6.9-15.9-15.1-15.9c-7.9,0-14.5,5.2-14.5,15.6v6.2h29.6V72.97z"/>
	</g>
	<g>
		<path class="st1" d="M486.32,152.77c-1.15,0-2.09-0.94-2.09-2.09V2.09c0-1.15,0.94-2.09,2.09-2.09s2.09,0.94,2.09,2.09v148.59
			C488.41,151.84,487.47,152.77,486.32,152.77z"/>
	</g>
</g>
</svg>
